<svg xmlns="http://www.w3.org/2000/svg" width="320" height="240" fill="none" viewBox="0 0 320 240">
  <g clip-path="url(#a)">
    <path stroke="#000" d="M75.485 131.459a.458.458 0 1 1-.001-.917.458.458 0 0 1 0 .917Zm74.89-125.824a.458.458 0 1 1 0-.916.458.458 0 0 1 0 .916ZM252.461 84.67a.458.458 0 1 1 0-.917.458.458 0 0 1 0 .917Zm-73.903 105.961a.459.459 0 1 1 0-.918.459.459 0 0 1 0 .918ZM43.08 91.663a.459.459 0 1 1 0-.918.459.459 0 0 1 0 .918Zm134.651-48.684a.46.46 0 1 1 0-.918.46.46 0 0 1 0 .918ZM52.01 186.308a.458.458 0 1 1-.002-.917.458.458 0 0 1 .001.917Z"/>
    <path stroke="#000" stroke-linecap="round" d="m39.732 206.948-2.526 1.838M220.815.385l-2.525 1.837m-47.262 114.98-2.526 1.838M144.87 225.973l2.563 1.786m-77.277-9.808 2.563 1.785M247.603 37.505l2.563 1.785M200.82 84.813l2.563 1.785m-82.998-75.102-2.907-1.142M56.587 5.177l-1.7 2.62m159.509 219.961-1.699 2.621"/>
    <path stroke="#A363F4" stroke-linecap="round" d="M198.977 194.782c.254 1.317.406 3.395-.134 4.74m-11.086 3.863c.373.201.733.36 1.081.484m9.822-3.968a2.204 2.204 0 0 1-.273.377m-.181.174a1.58 1.58 0 0 1-.458.266m-.164.052a2.103 2.103 0 0 1-.825.034c-2.779-.389-3.433-3.685-3.412-5.284.056-1.216.797-2.775 2.058-1.009 1.261 1.764.334 5.212-.287 6.715-.511 1.114-1.843 2.731-3.932 2.956m-.419.026a5.71 5.71 0 0 1-.291-.004m-.217-.015a5.354 5.354 0 0 1-.513-.072m-.208-.043a6.4 6.4 0 0 1-.521-.144"/>
    <path stroke="#000" stroke-linecap="round" d="M83.541 30.684c-2.207 1.12-5.82 2.445-8.481 2.169M62.572 15.138a14.378 14.378 0 0 0-.31 2.164M74.294 32.72a4.037 4.037 0 0 1-.806-.292m-.4-.234a2.929 2.929 0 0 1-.706-.678m-.175-.264c-.234-.396-.399-.875-.48-1.448-.72-5.13 4.798-7.965 7.647-8.741 2.185-.517 5.328.006 2.836 3.14-2.491 3.136-9.082 3.241-12.066 2.902-2.236-.34-5.783-1.884-7.243-5.476m-.259-.73a8.837 8.837 0 0 1-.14-.52m-.085-.393a9.679 9.679 0 0 1-.133-.946m-.029-.392c-.017-.32-.02-.653-.009-.996"/>
    <path stroke="#000" d="M182.929 128.653h47.014c-.755-4.702-3.393-3.498-4.617-2.308-7.892-16.708-15.252-7.312-17.946-.525-3.862-6.297-7.906-2.624-9.445 0-7.976-5.289-13.328-.315-15.006 2.833ZM81.015 48.952H34c.755-4.701 3.393-3.498 4.617-2.308 7.892-16.708 15.252-7.312 17.946-.525 3.862-6.297 7.906-2.624 9.445 0 7.976-5.29 13.328-.315 15.007 2.833Z" clip-rule="evenodd"/>
    <path fill="#A363F4" d="m228.409 53.234-2.354 12.722-10.03-4.167 9.304 7.304-8.315 4.089 9.636-1.797-2.018 11.95 4.97-11.622 8.764 9.487-5.77-10.812 8.668-2.91-8.287-.52 2.486-5.337-4.826 3.822-2.228-12.209Zm-67.077-25.837-.982 5.306-4.184-1.738 3.881 3.046-3.468 1.706 4.019-.75-.841 4.985 2.073-4.848 3.655 3.957-2.407-4.51 3.615-1.213-3.456-.217 1.037-2.226-2.013 1.594-.929-5.092Z"/>
    <path stroke="#000" d="m225.61 151.6-2.799 15.13-11.929-4.955 11.066 8.686-9.89 4.864 11.46-2.137-2.4 14.213 5.912-13.823 10.422 11.282-6.862-12.858 10.309-3.462-9.856-.617 2.958-6.349-5.741 4.547-2.65-14.521Z" clip-rule="evenodd"/>
    <path stroke="#000" stroke-linecap="round" d="m188.864 70.503-58.299 169.882m12.274-179.498-9.088 26.48M84.541 230.77l24.605-71.701m37.444 34.772-47.162-6.32m78.64-85.303-42.198-5.73m27.153 48.865-15.899-2.131"/>
    <path stroke="#000" d="m79.598 91.473-8.975 11.928c-1.322 1.36-2.992 0-2.06-2.332 0-.466 1.58-3.794 2.37-5.4l-4.662 3.07-11.034.582-5.595-4.623c-1.438-1.166-.614-2.455 1.282-2.02-1.01-.894-1.515-3.07 1.593-1.944-.466-.918-1.15-2.455.777-2.02.442.136 2.653 2.02 2.653 2.02s2.842.17 3.641.506l-6.294-4.39c-.738-.506-.233-1.865 1.126-1.438.312 0 4.767 2.046 6.955 3.07l10.568-5.362"/>
    <path stroke="#000" stroke-linecap="round" d="M70.9 95.639c-1.29-1.308-3.287-4.776-.967-8.187m60.492-13.734 18.16 76.235H83.138l21.396-82.528"/>
    <path stroke="#000" d="M173.246 53.62c.141-.187 7.521-13.674 11.193-20.394.694-1.269 2.344-.867 1.641 1.758a73.353 73.353 0 0 1-1.992 6.212c3.672 1.27 10.536 5.673 8.614 13.128-1.993 7.911-2.52-2.872-3.927-2.93-1.124-.048-5.313 6.309-7.266 9.493"/>
    <path stroke="#000" stroke-linecap="round" d="M102.434 149.862c-4.488-3.272-10.571-11.831 1.007-19.885 14.473-10.068 5.286-14.347 0-25.799-3.139-6.804-4.153-11.327 7.3-17.745 9.162-5.136 3.314-14.474-.755-18.5"/>
    <path stroke="#000" d="M140.517 30.061c-1.02-.528-1.774-1.359-2.338-2.395a9.116 9.116 0 0 0-.865-1.304c-1.205-1.514-2.759-2.5-4.287-2.88-1.527-.38-3.009-.151-4.114.727-1.104.879-1.659 2.27-1.633 3.844.026 1.574.636 3.31 1.841 4.825 1.204 1.515 2.759 2.5 4.287 2.88 1.527.38 3.008.152 4.113-.727 1.198-.953 1.752-2.513 1.614-4.251l-.022-.284.275-.075c.348-.095.767-.233 1.129-.36Z" clip-rule="evenodd"/>
    <path fill="#000" d="M133.255 30.553c1.925-2.782 1.062-6.004.49-7.076-.421-.286-1.672-.734-3.311-.238-2.05.62-3.098 2.025-3.36 5.027-.21 2.402 2.153 5.147 3.36 6.219 1.124-.23 1.723-1.24 1.882-1.716-.929-.19-2.216-1.072-1.644-2.216.571-1.143 2.668-.125 2.583 0Z"/>
    <path fill="#000" d="M121.715 21.585c3.537-1.488 6.223 1.064 7.124 2.526l-.176.913c-.222-.304-2.059-.352-3.298 0-3.761 1.067-3.123 7.65-3.123 9.51l-7.896-6.913c.982-1.392 3.832-4.548 7.369-6.036Z"/>
    <path stroke="#000" stroke-linecap="round" d="M136.909 27.408c-.519-.294-1.762-.578-2.589.64m4.04 4.942c-.316.107-1.091.175-1.651-.41m.449-3.703c-.476-.404-1.623-.872-2.396.488"/>
    <path fill="#000" d="M136.047 29.55a.5.5 0 1 1-.2-.98.5.5 0 0 1 .2.98Z"/>
    <path stroke="#000" stroke-linecap="round" d="M133.094 31.48c-.23-.242-.882-.665-1.651-.41"/>
    <path stroke="#000" stroke-linecap="round" d="M132.229 31.098c-.198.113-.472.473.02 1.008m3.197 4.038-1.076 2.967m-3.942-4.596-.945 2.269"/>
    <path fill="#000" d="m134.734 38.21.712-1.993c-1.943.081-3.835-.84-4.538-1.31 1.35 2.025 3.113 3.046 3.826 3.303Z"/>
    <path fill="#A363F4" d="M141.165 41.471s-14.678-6.193-20.004-6.874c-5.326-.682-11.591 2.632-13.759 4.738l-38.74 41.369 13.934 14.36 21.895-27.44 29.998 7.534 3.413-8.814c.522 2.938 2.787 10.805 7.678 18.767s14.265 5.024 18.34 2.559l25.876-21.326-16.776-15.355-13.649 19.193c-1.185-2.89-3.798-10.327-7.21-16.924-3.412-6.597-4.678-8.442-10.996-11.787Z"/>
    <path stroke="#000" stroke-linecap="round" d="m104.764 66.084 5.3-16.963m28.308 15.664 2.027-7.182m15.737 16.599 2.63-3.38"/>
    <path fill="#000" d="m109.966 188.991-5.416-.861-.652-29.167h14.777l1.629 14.15 26.955 20.677-32.986-4.799-2.584-5.047-1.723 5.047Z"/>
    <path stroke="#000" stroke-linecap="round" d="m103.659 150.058.239 8.905m13.768-8.905 1.009 8.905m0 0 1.629 14.15 26.955 20.677-32.986-4.799-2.584-5.047-1.723 5.047-5.416-.862-.652-29.166m14.777 0h-14.777"/>
    <path fill="#000" d="m129.428 189.024-5.414-.861-.653-29.167h14.777l1.63 14.151 26.954 20.678-32.985-4.801-2.585-5.046-1.724 5.046Z"/>
    <path stroke="#000" stroke-linecap="round" d="m123.121 150.092.24 8.905m13.769-8.905 1.008 8.905m0 0 1.63 14.15 26.954 20.678-32.985-4.801-2.585-5.045-1.724 5.045-5.414-.861-.653-29.166m14.777 0h-14.777m-9.093-8.905.646 7.174m-3.569-7.174 1.257 7.684m-4.624-7.684.238 7.174m25.512-7.14.646 7.174m-3.57-7.174 1.257 7.683m-4.623-7.683.238 7.174m-76.87-64.7 5.206 3.73 3.07-.428m-6.605-5.206 3.73 2.526 2.875-.35"/>
    <mask id="b" width="103" height="36" x="192" y="6" fill="#000" maskUnits="userSpaceOnUse">
      <path fill="#fff" d="M192 6h103v36H192z"/>
      <path d="M217.151 21.981h-4.33l4.878-14.779h5.484l4.879 14.78h-4.33l-3.233-10.71h-.115l-3.233 10.71Zm-.809-5.83h8.14v3.001h-8.14V16.15Zm21.889-8.949h4.013v9.468c0 1.126-.27 2.1-.808 2.923-.534.817-1.28 1.45-2.238 1.898-.957.442-2.068.663-3.333.663-1.275 0-2.392-.22-3.349-.663-.957-.448-1.703-1.08-2.237-1.898-.529-.823-.794-1.797-.794-2.923V7.202h4.013v9.122c0 .457.101.866.303 1.226.202.356.481.635.837.837.361.203.769.304 1.227.304.461 0 .87-.101 1.226-.303.356-.203.635-.482.837-.838.202-.36.303-.77.303-1.226V7.202Zm5.516 3.233V7.202h12.845v3.233h-4.445v11.546h-3.955V10.435h-4.445Zm27.978 4.157c0 1.645-.32 3.033-.96 4.164-.64 1.125-1.504 1.98-2.591 2.561-1.087.578-2.299.866-3.637.866-1.347 0-2.564-.29-3.651-.873-1.083-.587-1.944-1.443-2.584-2.569-.635-1.13-.952-2.514-.952-4.15 0-1.645.317-3.03.952-4.156.64-1.13 1.501-1.985 2.584-2.562 1.087-.582 2.304-.873 3.651-.873 1.338 0 2.55.291 3.637.873 1.087.577 1.951 1.431 2.591 2.562.64 1.126.96 2.511.96 4.157Zm-4.128 0c0-.886-.118-1.631-.354-2.237-.231-.611-.575-1.073-1.032-1.386-.452-.317-1.01-.476-1.674-.476-.664 0-1.224.159-1.681.476-.453.313-.797.775-1.032 1.386-.231.606-.347 1.351-.347 2.237 0 .885.116 1.633.347 2.244.235.606.579 1.068 1.032 1.386.457.312 1.017.469 1.681.469.664 0 1.222-.157 1.674-.47.457-.317.801-.779 1.032-1.385.236-.611.354-1.36.354-2.244ZM193 40.045v-14.78h6.379c1.097 0 2.057.217 2.88.65a4.717 4.717 0 0 1 1.919 1.826c.457.784.686 1.7.686 2.75 0 1.058-.236 1.974-.707 2.749a4.649 4.649 0 0 1-1.971 1.79c-.841.418-1.825.627-2.951.627h-3.81V32.54h3.002c.471 0 .873-.082 1.205-.246.337-.168.594-.406.772-.714.183-.308.274-.671.274-1.09 0-.423-.091-.784-.274-1.082a1.719 1.719 0 0 0-.772-.693c-.332-.164-.734-.245-1.205-.245h-1.415v11.575H193Zm15.329 0H204l4.878-14.78h5.484l4.879 14.78h-4.33l-3.233-10.71h-.116l-3.233 10.71Zm-.808-5.831h8.14v3.002h-8.14v-3.002Zm11.029-8.949h4.474l2.886 6.005h.116l2.886-6.005h4.475l-5.427 10.132v4.648h-3.984v-4.648l-5.426-10.131Zm16.145 14.78v-14.78h6.408c1.125 0 2.071.152 2.836.455.77.303 1.349.731 1.739 1.285.394.553.592 1.205.592 1.955 0 .544-.121 1.04-.361 1.487a3.19 3.19 0 0 1-.996 1.126 3.966 3.966 0 0 1-1.501.62v.145a3.707 3.707 0 0 1 1.732.483c.519.294.933.7 1.241 1.22.308.514.462 1.12.462 1.818 0 .808-.212 1.528-.635 2.158-.419.63-1.015 1.126-1.79 1.486-.774.361-1.698.542-2.771.542h-6.956Zm4.012-3.204h1.876c.674 0 1.179-.126 1.516-.376.336-.255.505-.63.505-1.125 0-.347-.08-.64-.238-.88a1.485 1.485 0 0 0-.679-.55c-.288-.124-.637-.187-1.046-.187h-1.934v3.118Zm0-5.6h1.645c.351 0 .662-.056.931-.166.27-.11.479-.27.628-.477.154-.211.231-.469.231-.772 0-.457-.164-.806-.491-1.046-.327-.245-.741-.368-1.241-.368h-1.703v2.829Zm13.401 8.804h-4.33l4.878-14.78h5.485l4.878 14.78h-4.33l-3.233-10.71h-.115l-3.233 10.71Zm-.809-5.831h8.141v3.002h-8.141v-3.002Zm26.247-3.406h-4.071a2.74 2.74 0 0 0-.23-.917 2.075 2.075 0 0 0-.506-.707 2.102 2.102 0 0 0-.772-.462 2.994 2.994 0 0 0-1.032-.166c-.673 0-1.243.164-1.71.49-.462.328-.813.797-1.054 1.408-.235.611-.353 1.345-.353 2.201 0 .905.12 1.662.361 2.273.245.606.599 1.064 1.06 1.371.462.303 1.018.455 1.667.455.371 0 .703-.046.996-.137.294-.096.549-.233.765-.411.217-.178.392-.393.527-.643.14-.255.233-.54.281-.858l4.071.028a5.539 5.539 0 0 1-.527 1.913 6.22 6.22 0 0 1-1.292 1.79c-.553.543-1.239.98-2.057 1.313-.818.332-1.768.498-2.85.498-1.357 0-2.574-.291-3.652-.873-1.072-.583-1.922-1.439-2.547-2.57-.621-1.13-.931-2.513-.931-4.149 0-1.645.318-3.03.953-4.157.635-1.13 1.491-1.984 2.569-2.561 1.077-.582 2.28-.874 3.608-.874.933 0 1.792.128 2.576.383a6.202 6.202 0 0 1 2.064 1.118 5.524 5.524 0 0 1 1.429 1.797c.361.712.58 1.528.657 2.447Zm1.82 9.237v-14.78h4.012v5.976h.202l4.446-5.976h4.676l-4.994 6.582 5.109 8.198h-4.791l-3.32-5.543-1.328 1.732v3.81h-4.012Z"/>
    </mask>
    <path stroke="#000" stroke-width="2" d="M217.151 21.981h-4.33l4.878-14.779h5.484l4.879 14.78h-4.33l-3.233-10.71h-.115l-3.233 10.71Zm-.809-5.83h8.14v3.001h-8.14V16.15Zm21.889-8.949h4.013v9.468c0 1.126-.27 2.1-.808 2.923-.534.817-1.28 1.45-2.238 1.898-.957.442-2.068.663-3.333.663-1.275 0-2.392-.22-3.349-.663-.957-.448-1.703-1.08-2.237-1.898-.529-.823-.794-1.797-.794-2.923V7.202h4.013v9.122c0 .457.101.866.303 1.226.202.356.481.635.837.837.361.203.769.304 1.227.304.461 0 .87-.101 1.226-.303.356-.203.635-.482.837-.838.202-.36.303-.77.303-1.226V7.202Zm5.516 3.233V7.202h12.845v3.233h-4.445v11.546h-3.955V10.435h-4.445Zm27.978 4.157c0 1.645-.32 3.033-.96 4.164-.64 1.125-1.504 1.98-2.591 2.561-1.087.578-2.299.866-3.637.866-1.347 0-2.564-.29-3.651-.873-1.083-.587-1.944-1.443-2.584-2.569-.635-1.13-.952-2.514-.952-4.15 0-1.645.317-3.03.952-4.156.64-1.13 1.501-1.985 2.584-2.562 1.087-.582 2.304-.873 3.651-.873 1.338 0 2.55.291 3.637.873 1.087.577 1.951 1.431 2.591 2.562.64 1.126.96 2.511.96 4.157Zm-4.128 0c0-.886-.118-1.631-.354-2.237-.231-.611-.575-1.073-1.032-1.386-.452-.317-1.01-.476-1.674-.476-.664 0-1.224.159-1.681.476-.453.313-.797.775-1.032 1.386-.231.606-.347 1.351-.347 2.237 0 .885.116 1.633.347 2.244.235.606.579 1.068 1.032 1.386.457.312 1.017.469 1.681.469.664 0 1.222-.157 1.674-.47.457-.317.801-.779 1.032-1.385.236-.611.354-1.36.354-2.244ZM193 40.045v-14.78h6.379c1.097 0 2.057.217 2.88.65a4.717 4.717 0 0 1 1.919 1.826c.457.784.686 1.7.686 2.75 0 1.058-.236 1.974-.707 2.749a4.649 4.649 0 0 1-1.971 1.79c-.841.418-1.825.627-2.951.627h-3.81V32.54h3.002c.471 0 .873-.082 1.205-.246.337-.168.594-.406.772-.714.183-.308.274-.671.274-1.09 0-.423-.091-.784-.274-1.082a1.719 1.719 0 0 0-.772-.693c-.332-.164-.734-.245-1.205-.245h-1.415v11.575H193Zm15.329 0H204l4.878-14.78h5.484l4.879 14.78h-4.33l-3.233-10.71h-.116l-3.233 10.71Zm-.808-5.831h8.14v3.002h-8.14v-3.002Zm11.029-8.949h4.474l2.886 6.005h.116l2.886-6.005h4.475l-5.427 10.132v4.648h-3.984v-4.648l-5.426-10.131Zm16.145 14.78v-14.78h6.408c1.125 0 2.071.152 2.836.455.77.303 1.349.731 1.739 1.285.394.553.592 1.205.592 1.955 0 .544-.121 1.04-.361 1.487a3.19 3.19 0 0 1-.996 1.126 3.966 3.966 0 0 1-1.501.62v.145a3.707 3.707 0 0 1 1.732.483c.519.294.933.7 1.241 1.22.308.514.462 1.12.462 1.818 0 .808-.212 1.528-.635 2.158-.419.63-1.015 1.126-1.79 1.486-.774.361-1.698.542-2.771.542h-6.956Zm4.012-3.204h1.876c.674 0 1.179-.126 1.516-.376.336-.255.505-.63.505-1.125 0-.347-.08-.64-.238-.88a1.485 1.485 0 0 0-.679-.55c-.288-.124-.637-.187-1.046-.187h-1.934v3.118Zm0-5.6h1.645c.351 0 .662-.056.931-.166.27-.11.479-.27.628-.477.154-.211.231-.469.231-.772 0-.457-.164-.806-.491-1.046-.327-.245-.741-.368-1.241-.368h-1.703v2.829Zm13.401 8.804h-4.33l4.878-14.78h5.485l4.878 14.78h-4.33l-3.233-10.71h-.115l-3.233 10.71Zm-.809-5.831h8.141v3.002h-8.141v-3.002Zm26.247-3.406h-4.071a2.74 2.74 0 0 0-.23-.917 2.075 2.075 0 0 0-.506-.707 2.102 2.102 0 0 0-.772-.462 2.994 2.994 0 0 0-1.032-.166c-.673 0-1.243.164-1.71.49-.462.328-.813.797-1.054 1.408-.235.611-.353 1.345-.353 2.201 0 .905.12 1.662.361 2.273.245.606.599 1.064 1.06 1.371.462.303 1.018.455 1.667.455.371 0 .703-.046.996-.137.294-.096.549-.233.765-.411.217-.178.392-.393.527-.643.14-.255.233-.54.281-.858l4.071.028a5.539 5.539 0 0 1-.527 1.913 6.22 6.22 0 0 1-1.292 1.79c-.553.543-1.239.98-2.057 1.313-.818.332-1.768.498-2.85.498-1.357 0-2.574-.291-3.652-.873-1.072-.583-1.922-1.439-2.547-2.57-.621-1.13-.931-2.513-.931-4.149 0-1.645.318-3.03.953-4.157.635-1.13 1.491-1.984 2.569-2.561 1.077-.582 2.28-.874 3.608-.874.933 0 1.792.128 2.576.383a6.202 6.202 0 0 1 2.064 1.118 5.524 5.524 0 0 1 1.429 1.797c.361.712.58 1.528.657 2.447Zm1.82 9.237v-14.78h4.012v5.976h.202l4.446-5.976h4.676l-4.994 6.582 5.109 8.198h-4.791l-3.32-5.543-1.328 1.732v3.81h-4.012Z" mask="url(#b)"/>
  </g>
  <defs>
    <clipPath id="a">
      <path fill="#fff" d="M0 0h320v240H0z"/>
    </clipPath>
  </defs>
</svg>
