<svg id="huma-loader" xmlns="http://www.w3.org/2000/svg" width="81" height="80" fill="none" viewBox="0 0 81 80">
  <path stroke="url(#SS)" stroke-miterlimit="10" stroke-width=".5" d="M40.976 0v26.34"/>
  <path stroke="url(#bbb)" stroke-miterlimit="10" stroke-width=".5" d="M42.877 26.471 46.542.39"/>
  <path stroke="url(#dd)" stroke-miterlimit="10" stroke-width=".5" d="m44.742 26.866 7.26-25.317"/>
  <path stroke="url(#ff)" stroke-miterlimit="10" stroke-width=".5" d="m46.533 27.518 10.712-24.06"/>
  <path stroke="url(#hh)" stroke-miterlimit="10" stroke-width=".5" d="M48.215 28.414 62.172 6.078"/>
  <path stroke="url(#jj)" stroke-miterlimit="10" stroke-width=".5" d="M49.756 29.536 66.687 9.358"/>
  <path stroke="url(#ll)" stroke-miterlimit="10" stroke-width=".5" d="m51.127 30.86 19.575-17.625"/>
  <path stroke="url(#nn)" stroke-miterlimit="10" stroke-width=".5" d="m52.302 32.36 21.835-14.728"/>
  <path stroke="url(#pp)" stroke-miterlimit="10" stroke-width=".5" d="m53.256 34.01 23.671-11.545"/>
  <path stroke="url(#rr)" stroke-miterlimit="10" stroke-width=".5" d="m53.97 35.778 25.049-8.139"/>
  <path stroke="url(#tt)" stroke-miterlimit="10" stroke-width=".5" d="m54.43 37.628 25.938-4.574"/>
  <path stroke="url(#vv)" stroke-miterlimit="10" stroke-width=".5" d="m54.627 39.523 26.324-.92"/>
  <path stroke="url(#xx)" stroke-miterlimit="10" stroke-width=".5" d="m80.756 44.181-26.194-2.753"/>
  <path stroke="url(#zz)" stroke-miterlimit="10" stroke-width=".5" d="m79.787 49.677-25.555-6.372"/>
  <path stroke="url(#BB)" stroke-miterlimit="10" stroke-width=".5" d="m78.063 54.984-24.419-9.866"/>
  <path stroke="url(#DD)" stroke-miterlimit="10" stroke-width=".5" d="m75.617 60-22.81-13.169"/>
  <path stroke="url(#FF)" stroke-miterlimit="10" stroke-width=".5" d="M72.496 64.627 51.74 48.41"/>
  <path stroke="url(#HH)" stroke-miterlimit="10" stroke-width=".5" d="M68.763 68.774 50.465 49.826"/>
  <path stroke="url(#JJ)" stroke-miterlimit="10" stroke-width=".5" d="M64.487 72.36 49.005 51.053"/>
  <path stroke="url(#LL)" stroke-miterlimit="10" stroke-width=".5" d="M59.754 75.318 47.39 52.063"/>
  <path stroke="url(#NN)" stroke-miterlimit="10" stroke-width=".5" d="M54.657 77.588 45.649 52.84"/>
  <path stroke="url(#PP)" stroke-miterlimit="10" stroke-width=".5" d="m49.292 79.126-5.476-25.762"/>
  <path stroke="url(#RR)" stroke-miterlimit="10" stroke-width=".5" d="m43.766 79.903-1.837-26.276"/>
  <path stroke="url(#aaa)" stroke-miterlimit="10" stroke-width=".5" d="m38.185 79.903 1.838-26.276"/>
  <path stroke="url(#ccc)" stroke-miterlimit="10" stroke-width=".5" d="m32.66 79.126 5.475-25.762"/>
  <path stroke="url(#ee)" stroke-miterlimit="10" stroke-width=".5" d="m27.295 77.588 9.007-24.748"/>
  <path stroke="url(#gg)" stroke-miterlimit="10" stroke-width=".5" d="m22.196 75.318 12.365-23.255"/>
  <path stroke="url(#ii)" stroke-miterlimit="10" stroke-width=".5" d="m17.464 72.36 15.482-21.308"/>
  <path stroke="url(#kk)" stroke-miterlimit="10" stroke-width=".5" d="m13.188 68.774 18.298-18.948"/>
  <path stroke="url(#mm)" stroke-miterlimit="10" stroke-width=".5" d="M9.455 64.627 30.211 48.41"/>
  <path stroke="url(#oo)" stroke-miterlimit="10" stroke-width=".5" d="m6.334 60 22.81-13.169"/>
  <path stroke="url(#qq)" stroke-miterlimit="10" stroke-width=".5" d="m3.889 54.984 24.418-9.866"/>
  <path stroke="url(#ss)" stroke-miterlimit="10" stroke-width=".5" d="m2.164 49.677 25.555-6.372"/>
  <path stroke="url(#uu)" stroke-miterlimit="10" stroke-width=".5" d="m1.194 44.181 26.195-2.753"/>
  <path stroke="url(#ww)" stroke-miterlimit="10" stroke-width=".5" d="M27.324 39.523 1 38.603"/>
  <path stroke="url(#yy)" stroke-miterlimit="10" stroke-width=".5" d="M27.52 37.628 1.584 33.054"/>
  <path stroke="url(#AA)" stroke-miterlimit="10" stroke-width=".5" d="M27.98 35.778 2.934 27.639"/>
  <path stroke="url(#CC)" stroke-miterlimit="10" stroke-width=".5" d="M28.695 34.01 5.023 22.465"/>
  <path stroke="url(#EE)" stroke-miterlimit="10" stroke-width=".5" d="M29.65 32.36 7.814 17.632"/>
  <path stroke="url(#GG)" stroke-miterlimit="10" stroke-width=".5" d="M30.825 30.86 11.25 13.235"/>
  <path stroke="url(#II)" stroke-miterlimit="10" stroke-width=".5" d="M32.195 29.536 15.264 9.358"/>
  <path stroke="url(#KK)" stroke-miterlimit="10" stroke-width=".5" d="M33.736 28.414 19.778 6.078"/>
  <path stroke="url(#MM)" stroke-miterlimit="10" stroke-width=".5" d="M35.418 27.518 24.706 3.458"/>
  <path stroke="url(#OO)" stroke-miterlimit="10" stroke-width=".5" d="M37.21 26.866 29.95 1.549"/>
  <path stroke="url(#QQ)" stroke-miterlimit="10" stroke-width=".5" d="M39.075 26.471 35.409.39"/>
  <defs>
    <linearGradient id="aaa" x1="40.023" x2="34.391" y1="56.16" y2="56.46" gradientUnits="userSpaceOnUse">
      <stop stop-color="#7632E0"/>
      <stop offset="1" stop-color="#FE557A"/>
    </linearGradient>
    <linearGradient id="bbb" x1="46.542" x2="35.401" y1="2.903" y2="4.096" gradientUnits="userSpaceOnUse">
      <stop stop-color="#7632E0"/>
      <stop offset="1" stop-color="#FE557A"/>
    </linearGradient>
    <linearGradient id="ccc" x1="38.135" x2="21.729" y1="55.847" y2="58.503" gradientUnits="userSpaceOnUse">
      <stop stop-color="#7632E0"/>
      <stop offset="1" stop-color="#FE557A"/>
    </linearGradient>
    <linearGradient id="dd" x1="52.002" x2="30.699" y1="3.989" y2="8.642" gradientUnits="userSpaceOnUse">
      <stop stop-color="#7632E0"/>
      <stop offset="1" stop-color="#FE557A"/>
    </linearGradient>
    <linearGradient id="ee" x1="36.302" x2="10.586" y1="55.225" y2="62.354" gradientUnits="userSpaceOnUse">
      <stop stop-color="#7632E0"/>
      <stop offset="1" stop-color="#FE557A"/>
    </linearGradient>
    <linearGradient id="ff" x1="57.245" x2="27.708" y1="5.777" y2="15.793" gradientUnits="userSpaceOnUse">
      <stop stop-color="#7632E0"/>
      <stop offset="1" stop-color="#FE557A"/>
    </linearGradient>
    <linearGradient id="gg" x1="34.561" x2="1.902" y1="54.305" y2="67.53" gradientUnits="userSpaceOnUse">
      <stop stop-color="#7632E0"/>
      <stop offset="1" stop-color="#FE557A"/>
    </linearGradient>
    <linearGradient id="hh" x1="62.172" x2="27.185" y1="8.231" y2="24.881" gradientUnits="userSpaceOnUse">
      <stop stop-color="#7632E0"/>
      <stop offset="1" stop-color="#FE557A"/>
    </linearGradient>
    <linearGradient id="ii" x1="32.946" x2="-3.495" y1="53.106" y2="73.27" gradientUnits="userSpaceOnUse">
      <stop stop-color="#7632E0"/>
      <stop offset="1" stop-color="#FE557A"/>
    </linearGradient>
    <linearGradient id="jj" x1="66.687" x2="29.728" y1="11.303" y2="34.922" gradientUnits="userSpaceOnUse">
      <stop stop-color="#7632E0"/>
      <stop offset="1" stop-color="#FE557A"/>
    </linearGradient>
    <linearGradient id="kk" x1="31.486" x2="-5.021" y1="51.653" y2="78.503" gradientUnits="userSpaceOnUse">
      <stop stop-color="#7632E0"/>
      <stop offset="1" stop-color="#FE557A"/>
    </linearGradient>
    <linearGradient id="ll" x1="70.702" x2="35.621" y1="14.934" y2="44.607" gradientUnits="userSpaceOnUse">
      <stop stop-color="#7632E0"/>
      <stop offset="1" stop-color="#FE557A"/>
    </linearGradient>
    <linearGradient id="mm" x1="30.211" x2="-2.509" y1="49.974" y2="81.869" gradientUnits="userSpaceOnUse">
      <stop stop-color="#7632E0"/>
      <stop offset="1" stop-color="#FE557A"/>
    </linearGradient>
    <linearGradient id="nn" x1="74.137" x2="44.628" y1="19.052" y2="52.371" gradientUnits="userSpaceOnUse">
      <stop stop-color="#7632E0"/>
      <stop offset="1" stop-color="#FE557A"/>
    </linearGradient>
    <linearGradient id="oo" x1="29.143" x2="3.551" y1="48.1" y2="81.86" gradientUnits="userSpaceOnUse">
      <stop stop-color="#7632E0"/>
      <stop offset="1" stop-color="#FE557A"/>
    </linearGradient>
    <linearGradient id="pp" x1="76.927" x2="55.762" y1="23.578" y2="56.629" gradientUnits="userSpaceOnUse">
      <stop stop-color="#7632E0"/>
      <stop offset="1" stop-color="#FE557A"/>
    </linearGradient>
    <linearGradient id="qq" x1="28.307" x2="11.82" y1="46.069" y2="77.149" gradientUnits="userSpaceOnUse">
      <stop stop-color="#7632E0"/>
      <stop offset="1" stop-color="#FE557A"/>
    </linearGradient>
    <linearGradient id="rr" x1="79.019" x2="67.161" y1="28.424" y2="56.218" gradientUnits="userSpaceOnUse">
      <stop stop-color="#7632E0"/>
      <stop offset="1" stop-color="#FE557A"/>
    </linearGradient>
    <linearGradient id="ss" x1="27.719" x2="20.115" y1="43.919" y2="67.15" gradientUnits="userSpaceOnUse">
      <stop stop-color="#7632E0"/>
      <stop offset="1" stop-color="#FE557A"/>
    </linearGradient>
    <linearGradient id="tt" x1="80.368" x2="76.311" y1="33.495" y2="51.018" gradientUnits="userSpaceOnUse">
      <stop stop-color="#7632E0"/>
      <stop offset="1" stop-color="#FE557A"/>
    </linearGradient>
    <linearGradient id="uu" x1="27.389" x2="25.884" y1="41.694" y2="52.599" gradientUnits="userSpaceOnUse">
      <stop stop-color="#7632E0"/>
      <stop offset="1" stop-color="#FE557A"/>
    </linearGradient>
    <linearGradient id="vv" x1="80.951" x2="80.781" y1="38.692" y2="42.397" gradientUnits="userSpaceOnUse">
      <stop stop-color="#7632E0"/>
      <stop offset="1" stop-color="#FE557A"/>
    </linearGradient>
    <linearGradient id="ww" x1="27.324" x2="27.154" y1="38.692" y2="42.397" gradientUnits="userSpaceOnUse">
      <stop stop-color="#7632E0"/>
      <stop offset="1" stop-color="#FE557A"/>
    </linearGradient>
    <linearGradient id="xx" x1="80.756" x2="79.251" y1="41.694" y2="52.599" gradientUnits="userSpaceOnUse">
      <stop stop-color="#7632E0"/>
      <stop offset="1" stop-color="#FE557A"/>
    </linearGradient>
    <linearGradient id="yy" x1="27.521" x2="23.464" y1="33.495" y2="51.018" gradientUnits="userSpaceOnUse">
      <stop stop-color="#7632E0"/>
      <stop offset="1" stop-color="#FE557A"/>
    </linearGradient>
    <linearGradient id="zz" x1="79.787" x2="72.183" y1="43.919" y2="67.15" gradientUnits="userSpaceOnUse">
      <stop stop-color="#7632E0"/>
      <stop offset="1" stop-color="#FE557A"/>
    </linearGradient>
    <linearGradient id="AA" x1="27.981" x2="16.123" y1="28.424" y2="56.218" gradientUnits="userSpaceOnUse">
      <stop stop-color="#7632E0"/>
      <stop offset="1" stop-color="#FE557A"/>
    </linearGradient>
    <linearGradient id="BB" x1="78.063" x2="61.576" y1="46.069" y2="77.149" gradientUnits="userSpaceOnUse">
      <stop stop-color="#7632E0"/>
      <stop offset="1" stop-color="#FE557A"/>
    </linearGradient>
    <linearGradient id="CC" x1="28.695" x2="7.529" y1="23.578" y2="56.629" gradientUnits="userSpaceOnUse">
      <stop stop-color="#7632E0"/>
      <stop offset="1" stop-color="#FE557A"/>
    </linearGradient>
    <linearGradient id="DD" x1="75.617" x2="50.025" y1="48.1" y2="81.86" gradientUnits="userSpaceOnUse">
      <stop stop-color="#7632E0"/>
      <stop offset="1" stop-color="#FE557A"/>
    </linearGradient>
    <linearGradient id="EE" x1="29.649" x2=".14" y1="19.052" y2="52.371" gradientUnits="userSpaceOnUse">
      <stop stop-color="#7632E0"/>
      <stop offset="1" stop-color="#FE557A"/>
    </linearGradient>
    <linearGradient id="FF" x1="72.496" x2="39.777" y1="49.974" y2="81.869" gradientUnits="userSpaceOnUse">
      <stop stop-color="#7632E0"/>
      <stop offset="1" stop-color="#FE557A"/>
    </linearGradient>
    <linearGradient id="GG" x1="30.825" x2="-4.256" y1="14.934" y2="44.607" gradientUnits="userSpaceOnUse">
      <stop stop-color="#7632E0"/>
      <stop offset="1" stop-color="#FE557A"/>
    </linearGradient>
    <linearGradient id="HH" x1="68.763" x2="32.255" y1="51.653" y2="78.503" gradientUnits="userSpaceOnUse">
      <stop stop-color="#7632E0"/>
      <stop offset="1" stop-color="#FE557A"/>
    </linearGradient>
    <linearGradient id="II" x1="32.195" x2="-4.765" y1="11.303" y2="34.922" gradientUnits="userSpaceOnUse">
      <stop stop-color="#7632E0"/>
      <stop offset="1" stop-color="#FE557A"/>
    </linearGradient>
    <linearGradient id="JJ" x1="64.487" x2="28.046" y1="53.106" y2="73.27" gradientUnits="userSpaceOnUse">
      <stop stop-color="#7632E0"/>
      <stop offset="1" stop-color="#FE557A"/>
    </linearGradient>
    <linearGradient id="KK" x1="33.736" x2="-1.251" y1="8.231" y2="24.881" gradientUnits="userSpaceOnUse">
      <stop stop-color="#7632E0"/>
      <stop offset="1" stop-color="#FE557A"/>
    </linearGradient>
    <linearGradient id="LL" x1="59.754" x2="27.096" y1="54.305" y2="67.53" gradientUnits="userSpaceOnUse">
      <stop stop-color="#7632E0"/>
      <stop offset="1" stop-color="#FE557A"/>
    </linearGradient>
    <linearGradient id="MM" x1="35.418" x2="5.881" y1="5.777" y2="15.793" gradientUnits="userSpaceOnUse">
      <stop stop-color="#7632E0"/>
      <stop offset="1" stop-color="#FE557A"/>
    </linearGradient>
    <linearGradient id="NN" x1="54.657" x2="28.94" y1="55.225" y2="62.354" gradientUnits="userSpaceOnUse">
      <stop stop-color="#7632E0"/>
      <stop offset="1" stop-color="#FE557A"/>
    </linearGradient>
    <linearGradient id="OO" x1="37.21" x2="15.907" y1="3.989" y2="8.642" gradientUnits="userSpaceOnUse">
      <stop stop-color="#7632E0"/>
      <stop offset="1" stop-color="#FE557A"/>
    </linearGradient>
    <linearGradient id="PP" x1="49.292" x2="32.887" y1="55.847" y2="58.503" gradientUnits="userSpaceOnUse">
      <stop stop-color="#7632E0"/>
      <stop offset="1" stop-color="#FE557A"/>
    </linearGradient>
    <linearGradient id="QQ" x1="39.075" x2="27.933" y1="2.903" y2="4.096" gradientUnits="userSpaceOnUse">
      <stop stop-color="#7632E0"/>
      <stop offset="1" stop-color="#FE557A"/>
    </linearGradient>
    <linearGradient id="RR" x1="43.766" x2="38.134" y1="56.16" y2="56.46" gradientUnits="userSpaceOnUse">
      <stop stop-color="#7632E0"/>
      <stop offset="1" stop-color="#FE557A"/>
    </linearGradient>
    <linearGradient id="SS" x1="41.976" x2="38.904" y1="2.539" y2="2.628" gradientUnits="userSpaceOnUse">
      <stop stop-color="#7632E0"/>
      <stop offset="1" stop-color="#FE557A"/>
    </linearGradient>
  </defs>
</svg>
