<svg xmlns="http://www.w3.org/2000/svg" width="324" height="242" fill="none" viewBox="0 0 324 242">
  <path stroke="#000" stroke-linecap="round" d="M4.494 215.76h313.958"/>
  <path stroke="#000" d="M287.935 135.475a.524.524 0 1 0 0-1.048.524.524 0 0 0 0 1.048ZM78.84 116.228a.524.524 0 1 0-.001-1.048.524.524 0 0 0 0 1.048Zm-18.97 87.197a.524.524 0 1 0-.001-1.048.524.524 0 0 0 .001 1.048Zm.919-186.026a.524.524 0 1 0 0-1.048.524.524 0 0 0 0 1.048Zm144.574 26.3a.524.524 0 1 0 0-1.05.524.524 0 0 0 0 1.05Zm-68.49 140.617a.524.524 0 1 0-.001-1.047.524.524 0 0 0 .001 1.047Z"/>
  <path stroke="#000" stroke-linecap="round" d="m240.004 112.677 2.903 2.117m-76.084 48.731 2.903 2.107m-9.273-133.11 2.903 2.117M159.26 2.76 162.38 1m-46.155 237.883 2.903 2.117m-81.554-87.306-2.943 2.057m135.638 68.751-2.943 2.057m113.115-47.436-2.943 2.058M41.602 51.017 39.52 48.09m229.397 15.301 3.338-1.315m5.243-44.272 1.955 3.017M34.6 232.949l1.946 3.016"/>
  <path stroke="#000" d="m60.979 130.112 1.461 7.932 6.241-2.601-5.786 4.55 5.174 2.552-5.994-1.118 1.254 7.448-3.09-7.24-5.452 5.914 3.595-6.735-5.392-1.81 5.155-.327-1.55-3.323 3.001 2.384 1.383-7.626Z" clip-rule="evenodd"/>
  <path fill="#000" d="M51.446 98.154 53.5 109.27l8.749-3.64-8.117 6.389 7.258 3.571-8.413-1.573 1.757 10.445-4.335-10.158-7.643 8.299 5.036-9.456-7.564-2.542 7.229-.455-2.173-4.668 4.217 3.343 1.945-10.672Zm56.671-82.694 2.153 11.662 9.183-3.818L110.932 30l7.613 3.748-8.818-1.641 1.846 10.959-4.542-10.653-8.028 8.694 5.283-9.91-7.94-2.67 7.584-.476-2.281-4.895 4.424 3.5 2.044-11.196Z"/>
  <path stroke="#000" d="M101.305 79.493H47.34c.869-5.4 3.89-4.025 5.302-2.65 9.056-19.209 17.508-8.408 20.6-.604 4.433-7.24 9.074-3.017 10.841 0 9.154-6.083 15.296-.366 17.222 3.254ZM205.66 26.34h34.344c-.553-3.442-2.478-2.561-3.377-1.691-5.767-12.225-11.139-5.351-13.113-.386-2.825-4.609-5.777-1.919-6.903 0-5.816-3.857-9.726-.217-10.951 2.077Z" clip-rule="evenodd"/>
  <path stroke="#000" d="m96.84 129.006-.257 2.097-14.99 1.296c-1.451.089-1.787.752-.82 1.434-1.016-.237-2.646.88-1.293 2.413-.898-.009-1.836.94-.938 2.008.089.109.385.366.8.475.415.109 1.669.277 2.242.336l-2.884.871c-.889.267-1.076 1.988.593 1.968l12.728-1.375-5.984 3.689c-.74.782-.563 2.839 1.61 2.008 1.046-.316 10.131-2.215 14.239-4.282l3.634-3.591 4.167-10.603"/>
  <path stroke="#000" stroke-linecap="round" d="m80.724 133.823 7.88.05m-9.213 2.373 8.551.089m-6.715 2.8 5.757-.989m58.479-92.014c.878 2.334 1.965 8.16-.721 12.769a3.662 3.662 0 0 1-.277.375m-7.781-1.048c-.306-.445-1.017-1.553-1.363-2.473m1.363 2.473c.454.623 1.116 1.316 1.758 1.74 2.824 1.712 4.631.525 5.322 0 .247-.187.484-.425.711-.692m-7.791-1.048v2.997m7.791-1.949v2.374"/>
  <path fill="#A363F4" d="M154.904 62.926c-3.417-1.246-7.979-1.998-10.013-1.988-2.242 1.86-6.814.781-8.631 0 0 0-3.624.692-5.915 1.553-7.722 2.077-11.948 8.931-13.4 12.284l-22.474 54.222h16.056v7.477h8.413c7.268-13.857 22.969-43.203 27.313-50.918 4.345-7.715 10.784-16.666 14.2-19.05-.237.01-2.133-2.334-5.549-3.58Z"/>
  <path stroke="#000" stroke-linecap="round" d="m208.167 72.036.02 1.206c-.03 2.7 3.15 3.61 3.653.445.069-1.72-.108-6.567-.345-10.731-.247-1.731-2.331-2.265-3.358-1.039m-.009-.01-.08-1.552c-.078-1.583-1.323-3.007-2.764-1.939m2.844 3.491.394 7.963m-3.238-11.454c-.06-1.128-.81-2.8-2.913-2.067-1.985.781-4.306 2.532-6.32 4.233m9.233-2.166.483 9.693m-4.196-6.815.503 7.527m-91.123 58.435 18.1-42.936m17.142-34.766c-.622 0-2.182.326-2.646 1.453-.464 1.128.079 4.036.967 5.56-.464-.14-1.155-.199-2.182-1.514m-1.411-4.589c-.514-.455-1.847-1.058-3.062.128m2.162 6.458c.366-.128 1.255-.207 1.896.465m-5.55-3.155c-.207-.326-.839-.949-1.767-.84"/>
  <path stroke="#000" stroke-linecap="round" d="M135.479 53.728c-.247.079-.642.425-.208 1.137"/>
  <path fill="#000" d="M147.043 48.02c3.535 2.157.958 4.382-.711 5.114.148-1.147-.138-3.244-.138-3.353-.682-.326-.692-.86-.613-1.088l-1.807-1.81-6.122.247c.326 1.988-1.452 4.056-2.251 4.748.385.316.256.83.256.722-1.481-.455-2.034.415-2.123.91-.523-.534-1.55-1.89-1.461-3.076.089-1.187 1.56-2.107 2.291-2.423-1.422-4.926 1.501-5.668 3.14-5.42-.129-.614.089-2.463 1.609-2.889 4.79-.94 5.175 4.105 5.175 3.996 2.972-.296 3.081 2.75 2.755 4.323Z"/>
  <path stroke="#000" stroke-linecap="round" d="M136.231 55.547c-.78.139-2.439.1-2.814-1.147-.474-1.553.967-2.225 2.271-1.681"/>
  <path fill="#000" d="M136.042 57.13c.563-.643.533-1.217.444-1.424h-1.215l.771 1.424Zm.435-5.747 5.766.485-1.293 2.76-3.525.237-.948-3.482Z"/>
  <path fill="#fff" d="m140.407 51.72.553.05-1.007 2.937-.504.04.958-3.027Zm-.898-.08.523.05-1.057 3.086-.424.03.958-3.165Z"/>
  <path fill="#000" d="m149.265 51.383-5.767.485 1.294 2.76 3.525.237.948-3.482Z"/>
  <path fill="#fff" d="m147.032 51.571.583-.059-1.096 3.234-.484-.03.997-3.145Zm-.967.079.582-.049-1.066 3.086-.425-.03.909-3.007Z"/>
  <path stroke="#000" d="M144.179 52.798h-2.736m-4.236-.258-2.202-.593"/>
  <path fill="#000" d="m144.457 60.977.098-1.473c-1.481 1.671-4.779 1.177-6.25.732 2.3 2.571 5.075 1.384 6.152.742Z"/>
  <path fill="#A363F4" d="m178.276 97.969 6.221 13.313c-5.836 6.706-12.008 4.332-14.368 2.305l8.147-15.618Z"/>
  <path stroke="#000" d="m178.089 98.068 12.985 25.667 5.836-.772m-18.821-24.895-20.095 38h-10.319m30.414-38-3.387-6.933-27.027 44.933m0 0h-22.189m0 0h-6.556s20.815-39.019 29.624-54.172c8.808-15.162 18.258-24.133 31.47-21.126 13.213 3.006 18.446 14.025 21.033 20.395 1.501 2.76 15.859 39.147 15.859 39.147l-20.016 2.651m-71.414 13.105 52.593-65.694 18.821 52.589"/>
  <path stroke="#000" d="M180.271 60.859c2.499-1.86 10.902-4.669 21.458 3.383m14.97 55.338 10.961-1.918c-2.893-10.732-9.164-29.346-16.787-42.125"/>
  <path fill="#000" stroke="#000" stroke-linecap="round" d="M204.661 136.484h-7.899l.79-13.442 13.795-1.82v3.234l23.245 12.028h-26.85l-2.577-3.521-.504 3.521Z"/>
  <path stroke="#000" stroke-linecap="round" d="M223.335 121.213v-2.671m0 2.671v3.234l23.245 12.027h-26.849l-2.578-3.521-.513 3.521h-7.9l.79-13.442 13.805-1.819Z"/>
  <mask id="a" width="324" height="71" x="0" y="135.504" fill="#000" maskUnits="userSpaceOnUse">
    <path fill="#fff" d="M0 135.504h324v71H0z"/>
    <path d="M39.722 158.337c-.174-2.179-.99-3.879-2.447-5.099-1.436-1.22-3.622-1.83-6.56-1.83-1.87 0-3.404.229-4.6.686-1.175.436-2.045 1.035-2.61 1.798a4.448 4.448 0 0 0-.882 2.615c-.044.806.098 1.536.424 2.19.348.631.892 1.209 1.632 1.732.74.501 1.686.959 2.839 1.373 1.153.414 2.523.784 4.111 1.111l5.482 1.177c3.699.784 6.864 1.819 9.496 3.105 2.632 1.285 4.786 2.8 6.461 4.543 1.675 1.721 2.904 3.66 3.688 5.818.804 2.157 1.218 4.51 1.24 7.06-.022 4.401-1.12 8.127-3.296 11.178-2.176 3.05-5.287 5.371-9.333 6.962-4.024 1.59-8.865 2.386-14.52 2.386-5.81 0-10.878-.861-15.207-2.583-4.307-1.721-7.658-4.368-10.05-7.942-2.372-3.595-3.568-8.193-3.59-13.793h17.23c.108 2.048.62 3.77 1.533 5.164.914 1.395 2.197 2.452 3.85 3.171 1.676.719 3.666 1.078 5.972 1.078 1.936 0 3.557-.239 4.862-.719 1.305-.479 2.295-1.144 2.97-1.994a4.708 4.708 0 0 0 1.044-2.908 4.142 4.142 0 0 0-1.012-2.681c-.63-.784-1.675-1.481-3.132-2.091-1.458-.632-3.427-1.221-5.907-1.765l-6.656-1.439c-5.918-1.285-10.584-3.431-14-6.438-3.393-3.029-5.079-7.158-5.057-12.388-.022-4.249 1.11-7.964 3.393-11.145 2.306-3.203 5.494-5.698 9.561-7.485 4.09-1.787 8.778-2.68 14.065-2.68 5.395 0 10.061.904 13.998 2.712 3.938 1.809 6.973 4.358 9.105 7.649 2.153 3.268 3.241 7.092 3.263 11.472h-17.36Zm71.251 12.551c0-4.009-.533-7.387-1.599-10.132-1.045-2.768-2.6-4.859-4.667-6.276-2.045-1.438-4.568-2.157-7.57-2.157-3.002 0-5.537.719-7.603 2.157-2.045 1.417-3.6 3.508-4.666 6.276-1.045 2.745-1.567 6.123-1.567 10.132 0 4.009.522 7.398 1.567 10.165 1.065 2.745 2.62 4.837 4.666 6.275 2.066 1.417 4.6 2.125 7.603 2.125 3.002 0 5.525-.708 7.57-2.125 2.067-1.438 3.622-3.53 4.667-6.275 1.066-2.767 1.599-6.156 1.599-10.165Zm27.059 33.469v-66.938h28.846c4.96 0 9.3.904 13.02 2.713 3.72 1.808 6.614 4.412 8.68 7.811 2.067 3.4 3.1 7.474 3.1 12.224 0 4.794-1.066 8.836-3.198 12.126-2.11 3.291-5.079 5.775-8.908 7.453-3.807 1.677-8.256 2.516-13.346 2.516h-17.23v-14.12h13.575c2.132 0 3.948-.261 5.449-.784 1.523-.545 2.687-1.405 3.492-2.582.827-1.177 1.24-2.713 1.24-4.609 0-1.917-.413-3.475-1.24-4.674-.805-1.22-1.969-2.113-3.492-2.68-1.501-.588-3.317-.882-5.449-.882h-6.396v52.426h-18.143Zm39.158-30.724 16.707 30.724h-19.709l-16.316-30.724h19.318Zm22.222 30.724v-66.938h28.846c4.96 0 9.3.904 13.02 2.713 3.72 1.808 6.613 4.412 8.68 7.811 2.067 3.4 3.1 7.474 3.1 12.224 0 4.794-1.066 8.836-3.198 12.126-2.11 3.291-5.08 5.775-8.908 7.453-3.807 1.677-8.256 2.516-13.347 2.516h-17.229v-14.12h13.575c2.132 0 3.948-.261 5.449-.784 1.523-.545 2.687-1.405 3.492-2.582.826-1.177 1.24-2.713 1.24-4.609 0-1.917-.414-3.475-1.24-4.674-.805-1.22-1.969-2.113-3.492-2.68-1.501-.588-3.317-.882-5.449-.882h-6.396v52.426h-18.143Zm39.158-30.724 16.707 30.724h-19.709l-16.316-30.724h19.318Zm16.34-36.214h20.231l13.053 27.194h.522l13.052-27.194H322l-24.539 45.889v21.049h-18.012v-21.049l-24.539-45.889Z"/>
  </mask>
  <path fill="#000" d="m125.298 189.747.435.247v-.001l-.435-.246Zm-11.715 11.603.235.442.001-.001-.236-.441Zm-32.958-.033-.238.44.002.001.236-.441Zm-11.682-11.635-.436.244.001.002.435-.246Zm0-37.62-.435-.246.435.246Zm44.64-11.603-.236.44.001.001.235-.441Zm11.715 11.603-.436.246h.001l.435-.246Zm3.84 18.826c0 7.388-1.434 13.585-4.276 18.613l.871.492c2.946-5.213 4.405-11.589 4.405-19.105h-1Zm-4.275 18.612c-2.849 5.021-6.687 8.82-11.516 11.409l.472.882c5.004-2.684 8.976-6.621 11.914-11.797l-.87-.494Zm-11.515 11.409c-4.838 2.573-10.238 3.863-16.211 3.863v1c6.122 0 11.686-1.324 16.681-3.98l-.47-.883Zm-16.211 3.863c-6.017 0-11.438-1.301-16.275-3.895l-.473.881c4.996 2.679 10.582 4.014 16.748 4.014v-1Zm-16.273-3.894c-4.808-2.611-8.636-6.421-11.486-11.443l-.87.493c2.937 5.176 6.898 9.123 11.879 11.829l.477-.879Zm-11.485-11.441c-2.82-5.029-4.243-11.204-4.243-18.549h-1c0 7.472 1.448 13.826 4.371 19.038l.872-.489Zm-4.243-18.549c0-7.389 1.424-13.575 4.243-18.581l-.871-.491c-2.924 5.192-4.372 11.557-4.372 19.072h1Zm48.212-29.988c4.828 2.567 8.665 6.365 11.514 11.408l.871-.492c-2.937-5.199-6.91-9.137-11.915-11.799l-.47.883Zm11.515 11.408c2.84 5.006 4.275 11.191 4.275 18.58h1c0-7.516-1.459-13.881-4.405-19.073l-.87.493Zm-55.484 0c2.295-4.062 5.223-7.314 8.783-9.767l-.567-.823c-3.695 2.544-6.723 5.914-9.087 10.098l.87.492Zm36.457-14.288a31.998 31.998 0 0 1 7.511 2.879l.472-.881a32.94 32.94 0 0 0-7.744-2.969l-.239.971Zm-66.114 20.317-.997.08.074.92h.923v-1Zm-2.447-5.099-.648.762.006.005.642-.767Zm-11.16-1.144.347.938.01-.004-.357-.934Zm-2.61 1.798-.804-.596.803.596Zm-.882 2.615.999.054v-.032l-.999-.022Zm.424 2.19-.895.446.01.018.01.018.875-.482Zm1.632 1.732-.577.816.008.006.008.006.56-.828Zm6.95 2.484.21-.978-.008-.002-.202.98Zm5.482 1.177-.21.977.003.001.207-.978Zm15.957 7.648-.72.693.004.004.716-.697Zm3.688 5.818-.94.341.003.008.936-.349Zm1.24 7.06 1 .004v-.013l-1 .009ZM54.7 195.794l.814.58-.814-.58Zm-9.333 6.962-.366-.931-.001.001.367.93Zm-29.727-.197-.371.929.001.001.37-.93Zm-10.05-7.942-.835.551.004.005.83-.556ZM2 180.824v-1H.996L1 180.828l1-.004Zm17.23 0 .998-.053-.05-.947h-.949v1Zm1.533 5.164-.836.548.836-.548Zm3.85 3.171-.398.917.004.002.395-.919Zm10.834.359.345.939-.345-.939Zm2.97-1.994.783.622-.783-.622Zm1.044-2.908 1 .02v-.042l-1 .022Zm-1.012-2.681-.779.627.01.012.01.012.76-.651Zm-3.132-2.091-.398.917.012.005.386-.922Zm-5.907-1.765.215-.977-.003-.001-.212.978Zm-6.656-1.439-.213.978h.001l.212-.978Zm-14-6.438-.665.746.005.004.66-.75Zm-5.057-12.388 1 .004v-.009l-1 .005Zm3.393-11.145-.811-.585v.001l.811.584Zm9.561-7.485-.4-.917-.002.001.402.916Zm28.064.032-.418.909.418-.909Zm9.104 7.649-.84.544.005.006.835-.55Zm3.263 11.472v1h1.005l-.005-1.005-1 .005Zm52.292 2.419-.936.353.003.009.933-.362Zm-4.667-6.276-.575.818.01.007.565-.825Zm-15.173 0 .57.822.001-.001-.571-.821Zm-4.666 6.276-.934-.36-.001.004.934.356Zm0 20.297-.936.353.003.009.933-.362Zm4.666 6.275-.576.818.01.007.566-.825Zm15.173 0 .57.822.002-.001-.572-.821Zm4.667-6.275-.933-.36-.002.004.935.356Zm28.658 23.304h-1v1h1v-1Zm0-66.938v-1h-1v1h1Zm50.546 10.524.855-.519-.855.519Zm-.098 24.35-.839-.543-.002.004.841.539Zm-8.908 7.453-.401-.916h-.002l.403.916Zm-30.576 2.516h-1v1h1v-1Zm0-14.12v-1h-1v1h1Zm19.024-.784.33.944.007-.002-.337-.942Zm3.492-2.582-.818-.575-.007.01.825.565Zm0-9.283-.835.551.006.009.006.008.823-.568Zm-3.492-2.68-.364.931.008.004.008.003.348-.938Zm-11.845-.882v-1h-1v1h1Zm0 52.426v1h1v-1h-1Zm21.015-30.724.878-.477-.284-.523h-.594v1Zm16.707 30.724v1h1.682l-.803-1.478-.879.478Zm-19.709 0-.883.469.282.531h.601v-1Zm-16.316-30.724v-1h-1.663l.78 1.47.883-.47Zm41.54 30.724h-1v1h1v-1Zm0-66.938v-1h-1v1h1Zm50.546 10.524.854-.519-.854.519Zm-.098 24.35-.839-.543-.003.004.842.539Zm-8.908 7.453-.402-.916h-.002l.404.916Zm-30.576 2.516h-1v1h1v-1Zm0-14.12v-1h-1v1h1Zm19.024-.784.329.944.008-.002-.337-.942Zm3.492-2.582-.819-.575-.007.01.826.565Zm0-9.283-.835.551.006.009.006.008.823-.568Zm-3.492-2.68-.365.931.008.004.008.003.349-.938Zm-11.845-.882v-1h-1v1h1Zm0 52.426v1h1v-1h-1Zm21.015-30.724.878-.477-.284-.523h-.594v1Zm16.707 30.724v1h1.682l-.804-1.478-.878.478Zm-19.709 0-.884.469.282.531h.602v-1Zm-16.316-30.724v-1h-1.663l.78 1.47.883-.47Zm35.658-36.214v-1h-1.669l.787 1.471.882-.471Zm20.231 0 .902-.433-.272-.567h-.63v1Zm13.053 27.194-.902.432.273.568h.629v-1Zm.522 0v1h.629l.272-.568-.901-.432Zm13.052-27.194v-1h-.629l-.272.567.901.433Zm20.232 0 .882.471.787-1.471H322v1Zm-24.539 45.889-.882-.471-.118.221v.25h1Zm0 21.049v1h1v-1h-1Zm-18.012 0h-1v1h1v-1Zm0-21.049h1v-.25l-.119-.221-.881.471Zm-238.73-25.051c-.192-2.402-1.108-4.367-2.803-5.786l-1.283 1.534c1.22 1.022 1.936 2.456 2.092 4.412l1.994-.16Zm-2.797-5.781c-1.694-1.439-4.158-2.068-7.206-2.068v2c2.825 0 4.733.591 5.911 1.592l1.295-1.524Zm-7.206-2.068c-1.942 0-3.608.236-4.959.752l.715 1.868c1.043-.399 2.444-.62 4.244-.62v-2Zm-4.95.749c-1.299.482-2.352 1.178-3.065 2.139l1.606 1.192c.419-.565 1.105-1.067 2.155-1.456l-.695-1.875Zm-3.065 2.139a5.448 5.448 0 0 0-1.078 3.189l2 .044c.017-.781.246-1.451.684-2.041l-1.606-1.192Zm-1.076 3.157c-.052.96.116 1.866.527 2.69l1.79-.893c-.241-.483-.356-1.038-.32-1.689l-1.997-.108Zm.546 2.726c.438.794 1.098 1.478 1.93 2.066l1.155-1.633c-.647-.457-1.074-.928-1.333-1.398l-1.752.965Zm1.947 2.078c.83.562 1.857 1.053 3.062 1.486l.676-1.883c-1.101-.395-1.966-.818-2.616-1.259l-1.122 1.656Zm3.062 1.486c1.209.434 2.627.816 4.248 1.149l.403-1.959c-1.556-.32-2.878-.679-3.975-1.073l-.676 1.883Zm4.24 1.148 5.482 1.176.42-1.955-5.483-1.177-.42 1.956Zm5.484 1.177c3.64.772 6.723 1.784 9.264 3.025l.878-1.797c-2.724-1.33-5.97-2.388-9.727-3.185l-.415 1.957Zm9.264 3.025c2.549 1.245 4.6 2.695 6.18 4.338l1.441-1.386c-1.771-1.844-4.027-3.422-6.743-4.749l-.878 1.797Zm6.184 4.342c1.58 1.625 2.731 3.444 3.464 5.462l1.88-.683c-.834-2.296-2.142-4.356-3.911-6.174l-1.433 1.395Zm3.467 5.47c.76 2.037 1.156 4.274 1.176 6.719l2-.017c-.022-2.653-.453-5.124-1.303-7.401l-1.873.699Zm1.176 6.706c-.02 4.232-1.074 7.748-3.11 10.602l1.629 1.161c2.315-3.246 3.459-7.183 3.481-11.754l-2-.009Zm-3.11 10.602c-2.045 2.869-4.988 5.08-8.884 6.612l.732 1.861c4.197-1.65 7.476-4.079 9.78-7.312l-1.627-1.161ZM45 201.826c-3.878 1.532-8.587 2.316-14.154 2.316v2c5.745 0 10.717-.808 14.889-2.456l-.735-1.86Zm-14.154 2.316c-5.712 0-10.65-.847-14.837-2.512l-.739 1.859c4.472 1.778 9.671 2.653 15.576 2.653v-2Zm-14.835-2.511c-4.135-1.653-7.319-4.178-9.59-7.57l-1.662 1.112c2.514 3.755 6.03 6.525 10.51 8.315l.742-1.857Zm-9.587-7.565c-2.236-3.39-3.403-7.783-3.424-13.246l-2 .008c.022 5.737 1.249 10.54 3.755 14.34l1.67-1.102ZM2 181.824h17.23v-2H2v2Zm16.23-.947c.117 2.184.666 4.087 1.697 5.659l1.672-1.096c-.796-1.216-1.27-2.757-1.371-4.669l-1.997.106Zm1.697 5.659c1.029 1.571 2.47 2.75 4.288 3.54l.797-1.834c-1.49-.648-2.614-1.584-3.413-2.802l-1.672 1.096Zm4.292 3.542c1.828.784 3.96 1.159 6.366 1.159v-2c-2.205 0-4.055-.344-5.577-.997l-.789 1.838Zm6.366 1.159c2.011 0 3.757-.248 5.207-.78l-.69-1.877c-1.16.426-2.656.657-4.517.657v2Zm5.207-.78c1.43-.525 2.591-1.282 3.408-2.311l-1.567-1.243c-.532.67-1.35 1.243-2.53 1.677l.689 1.877Zm3.408-2.311a5.708 5.708 0 0 0 1.26-3.51l-1.999-.04a3.713 3.713 0 0 1-.828 2.307l1.567 1.243Zm1.26-3.552a5.136 5.136 0 0 0-1.25-3.309l-1.52 1.301c.498.583.754 1.253.771 2.051l2-.043Zm-1.232-3.285c-.778-.968-1.993-1.747-3.525-2.388l-.773 1.845c1.384.579 2.257 1.195 2.74 1.796l1.558-1.253Zm-3.514-2.383c-1.54-.668-3.579-1.273-6.09-1.824l-.428 1.953c2.45.538 4.349 1.11 5.723 1.706l.795-1.835Zm-6.092-1.825-6.657-1.438-.423 1.955 6.657 1.438.423-1.955Zm-6.656-1.438c-5.804-1.261-10.298-3.349-13.55-6.212l-1.322 1.501c3.578 3.151 8.417 5.355 14.447 6.666l.425-1.955ZM9.42 169.456c-3.147-2.809-4.745-6.647-4.724-11.638l-2-.008c-.023 5.468 1.752 9.889 5.392 13.138l1.332-1.492Zm-4.724-11.647c-.021-4.057 1.055-7.562 3.206-10.557l-1.625-1.167c-2.418 3.368-3.604 7.293-3.581 11.734l2-.01Zm3.205-10.556c2.189-3.041 5.226-5.429 9.152-7.154l-.805-1.831c-4.21 1.85-7.547 4.451-9.97 7.816l1.623 1.169Zm9.15-7.153c3.942-1.722 8.49-2.596 13.664-2.596v-2c-5.4 0-10.228.912-14.465 2.763l.8 1.833Zm13.664-2.596c5.285 0 9.803.886 13.581 2.621l.835-1.817c-4.096-1.882-8.912-2.804-14.416-2.804v2Zm13.581 2.621c3.784 1.738 6.664 4.169 8.683 7.283l1.678-1.087c-2.246-3.466-5.435-6.134-9.526-8.013l-.835 1.817Zm8.687 7.29c2.034 3.088 3.077 6.717 3.098 10.927l2-.01c-.023-4.55-1.156-8.568-3.428-12.017l-1.67 1.1Zm4.098 9.922h-17.36v2h17.36v-2Zm54.891 13.551c0-4.091-.543-7.6-1.667-10.494l-1.865.724c1.009 2.596 1.532 5.843 1.532 9.77h2Zm-1.664-10.485c-1.103-2.924-2.772-5.196-5.036-6.748l-1.131 1.65c1.869 1.281 3.311 3.192 4.296 5.804l1.871-.706Zm-5.026-6.741c-2.245-1.578-4.98-2.339-8.146-2.339v2c2.838 0 5.15.678 6.995 1.975l1.151-1.636Zm-8.146-2.339c-3.166 0-5.91.761-8.174 2.336l1.142 1.642c1.869-1.3 4.194-1.978 7.032-1.978v-2Zm-8.173 2.335c-2.239 1.551-3.906 3.82-5.03 6.738l1.867.719c1.008-2.617 2.452-4.531 4.302-5.813l-1.139-1.644Zm-5.031 6.742c-1.1 2.892-1.632 6.399-1.632 10.488h2c0-3.929.513-7.178 1.501-9.777l-1.87-.711ZM82.3 170.888c0 4.09.532 7.606 1.63 10.518l1.872-.706c-.99-2.622-1.502-5.883-1.502-9.812h-2Zm1.634 10.527c1.125 2.896 2.79 5.161 5.023 6.731l1.151-1.636c-1.856-1.305-3.302-3.224-4.31-5.819l-1.864.724Zm5.034 6.738c2.263 1.552 5.005 2.3 8.168 2.3v-2c-2.841 0-5.168-.668-7.038-1.95l-1.13 1.65Zm8.168 2.3c3.163 0 5.896-.748 8.14-2.303l-1.139-1.644c-1.846 1.279-4.16 1.947-7.001 1.947v2Zm8.142-2.304c2.258-1.571 3.926-3.839 5.029-6.741l-1.869-.711c-.985 2.59-2.428 4.506-4.303 5.811l1.143 1.641Zm5.028-6.737c1.123-2.914 1.666-6.432 1.666-10.524h-2c0 3.927-.523 7.185-1.532 9.805l1.866.719Zm28.725 22.945v-66.938h-2v66.938h2Zm-1-65.938h28.846v-2h-28.846v2Zm28.846 0c4.839 0 9.024.882 12.583 2.612l.875-1.799c-3.881-1.886-8.376-2.813-13.458-2.813v2Zm12.583 2.612c3.555 1.728 6.3 4.203 8.263 7.432l1.709-1.039c-2.171-3.57-5.212-6.303-9.097-8.192l-.875 1.799Zm8.263 7.432c1.954 3.214 2.954 7.102 2.954 11.704h2c0-4.897-1.066-9.159-3.245-12.743l-1.709 1.039Zm2.954 11.704c0 4.644-1.031 8.487-3.037 11.583l1.679 1.087c2.258-3.485 3.358-7.726 3.358-12.67h-2Zm-3.039 11.587c-1.997 3.112-4.807 5.471-8.468 7.076l.802 1.831c3.997-1.751 7.125-4.36 9.349-7.828l-1.683-1.079Zm-8.47 7.076c-3.655 1.611-7.961 2.432-12.943 2.432v2c5.199 0 9.79-.857 13.749-2.601l-.806-1.831Zm-12.943 2.432h-17.23v2h17.23v-2Zm-16.23 1v-14.12h-2v14.12h2Zm-1-13.12h13.575v-2h-13.575v2Zm13.575 0c2.208 0 4.142-.27 5.778-.84l-.658-1.888c-1.366.476-3.064.728-5.12.728v2Zm5.786-.842c1.694-.606 3.041-1.586 3.98-2.959l-1.65-1.13c-.671.98-1.651 1.722-3.003 2.205l.673 1.884Zm3.973-2.949c.978-1.391 1.422-3.147 1.422-5.184h-2c0 1.755-.382 3.072-1.058 4.034l1.636 1.15Zm1.422-5.184c0-2.056-.443-3.83-1.417-5.241l-1.646 1.135c.68.986 1.063 2.328 1.063 4.106h2Zm-1.405-5.224c-.935-1.417-2.279-2.435-3.978-3.067l-.697 1.875c1.347.501 2.33 1.27 3.005 2.293l1.67-1.101Zm-3.962-3.061c-1.648-.646-3.595-.951-5.814-.951v2c2.045 0 3.731.283 5.085.813l.729-1.862Zm-5.814-.951h-6.396v2h6.396v-2Zm-7.396 1v52.426h2v-52.426h-2Zm1 51.426h-18.143v2h18.143v-2Zm20.136-29.246 16.708 30.724 1.757-.956-16.708-30.723-1.757.955Zm17.586 29.246h-19.709v2h19.709v-2Zm-18.826.531-16.316-30.724-1.766.939 16.316 30.723 1.766-.938Zm-17.199-29.255h19.318v-2h-19.318v2Zm42.54 29.724v-66.938h-2v66.938h2Zm-1-65.938h28.846v-2h-28.846v2Zm28.846 0c4.838 0 9.024.882 12.583 2.612l.874-1.799c-3.88-1.886-8.375-2.813-13.457-2.813v2Zm12.583 2.612c3.554 1.728 6.3 4.203 8.263 7.432l1.708-1.039c-2.17-3.57-5.211-6.303-9.097-8.192l-.874 1.799Zm8.263 7.432c1.954 3.214 2.954 7.102 2.954 11.704h2c0-4.897-1.067-9.159-3.246-12.743l-1.708 1.039Zm2.954 11.704c0 4.644-1.031 8.487-3.037 11.583l1.678 1.087c2.258-3.485 3.359-7.726 3.359-12.67h-2Zm-3.04 11.587c-1.996 3.112-4.806 5.471-8.468 7.076l.803 1.831c3.996-1.751 7.125-4.36 9.349-7.828l-1.684-1.079Zm-8.47 7.076c-3.654 1.611-7.961 2.432-12.943 2.432v2c5.2 0 9.791-.857 13.75-2.601l-.807-1.831Zm-12.943 2.432h-17.229v2h17.229v-2Zm-16.229 1v-14.12h-2v14.12h2Zm-1-13.12h13.575v-2h-13.575v2Zm13.575 0c2.208 0 4.142-.27 5.778-.84l-.658-1.888c-1.366.476-3.065.728-5.12.728v2Zm5.786-.842c1.694-.606 3.041-1.586 3.98-2.959l-1.651-1.13c-.67.98-1.651 1.722-3.003 2.205l.674 1.884Zm3.973-2.949c.977-1.391 1.422-3.147 1.422-5.184h-2c0 1.755-.383 3.072-1.058 4.034l1.636 1.15Zm1.422-5.184c0-2.056-.444-3.83-1.417-5.241l-1.646 1.135c.68.986 1.063 2.328 1.063 4.106h2Zm-1.405-5.224c-.935-1.417-2.28-2.435-3.978-3.067l-.698 1.875c1.348.501 2.331 1.27 3.006 2.293l1.67-1.101Zm-3.962-3.061c-1.648-.646-3.596-.951-5.814-.951v2c2.045 0 3.73.283 5.084.813l.73-1.862Zm-5.814-.951h-6.396v2h6.396v-2Zm-7.396 1v52.426h2v-52.426h-2Zm1 51.426h-18.143v2h18.143v-2Zm20.136-29.246 16.707 30.724 1.757-.956-16.707-30.723-1.757.955Zm17.586 29.246h-19.709v2h19.709v-2Zm-18.826.531-16.316-30.724-1.766.939 16.315 30.723 1.767-.938Zm-17.199-29.255h19.318v-2h-19.318v2Zm35.658-36.214h20.231v-2h-20.23v2Zm19.33-.567 13.052 27.193 1.803-.865-13.052-27.194-1.803.866Zm13.954 27.761h.522v-2h-.522v2Zm1.423-.568 13.053-27.193-1.803-.866-13.053 27.194 1.803.865Zm12.151-26.626H322v-2h-20.232v2Zm19.35-1.472-24.539 45.89 1.764.943 24.539-45.89-1.764-.943Zm-24.657 46.361v21.049h2v-21.049h-2Zm1 20.049h-18.012v2h18.012v-2Zm-17.012 1v-21.049h-2v21.049h2Zm-.119-21.52-24.538-45.89-1.764.943 24.539 45.89 1.763-.943Z" mask="url(#a)"/>
</svg>
