<svg width="931" height="632" viewBox="0 0 931 632" fill="none" xmlns="http://www.w3.org/2000/svg">
<path d="M523.658 329.125L541.033 339.75C541.033 339.75 531.783 373.562 528.096 392C524.408 410.437 520.096 424.562 515.158 433.812C507.471 448.25 487.533 449.375 479.846 443.5C463.846 431.375 455.408 394.625 455.408 394.625C455.408 394.625 446.971 364.375 442.346 348.062C438.596 334.75 429.721 314.875 429.721 314.875L399.596 329.188C399.596 329.188 401.283 359.312 390.096 384.375C379.346 408.437 350.783 432 338.783 439.375C326.783 446.75 315.283 450.875 317.596 463.375C319.908 475.813 336.471 503 347.533 516.875C358.596 530.687 386.596 571.687 392.721 586C399.971 602.875 407.471 621.5 389.971 626.562C372.471 631.625 346.471 595.5 346.471 595.5L261.346 476.25C261.346 476.25 260.908 469.812 267.783 461.937C274.721 454.125 277.033 449.5 280.721 439.375C284.408 429.25 285.783 397.437 285.783 397.437C285.783 397.437 255.846 341.687 250.283 334.75C244.721 327.812 235.096 314.937 235.096 314.937C235.096 314.937 226.408 343.625 210.658 370.25C192.846 400.375 157.721 430.875 124.908 443.375C91.0957 456.312 58.9707 459.187 35.0332 460.125C11.0332 461.062 -2.77937 452.875 0.470628 447.375C3.72063 441.812 65.0331 433.875 65.0331 433.875L172.408 364.625L218.533 249.375L306.533 176.5L427.783 179.75L509.408 310.187C509.408 310.187 497.908 337.875 496.971 342.937C496.033 348 497.408 377.062 497.408 377.062C497.408 377.062 500.783 365.562 503.408 356.75C505.283 350.562 505.721 339.688 505.721 339.688L523.658 329.125Z" fill="url(#paint0_linear_345_196)"/>
<path d="M588.221 162.688C588.221 162.688 549.596 124.938 537.033 108.313C517.033 81.875 502.471 46.5625 518.596 34.5625C534.721 22.5625 563.783 50.25 579.908 71.875C596.033 93.5 612.033 128.125 615.721 119.375C619.408 110.625 602.033 89.75 590.846 71.75C585.096 62.5 569.658 45.5 562.908 30.875C557.033 18.1875 558.408 7.43754 567.533 2.62504C587.846 -8.12496 620.096 22.8125 630.658 43.8125C645.533 73.3125 650.471 107.438 650.471 107.438C650.471 107.438 674.908 104.688 696.596 121.25C712.221 133.188 720.596 158.125 728.846 162.75C737.158 167.375 768.158 181.813 768.158 181.813C768.158 181.813 792.721 209.75 769.846 232.813C759.283 243.438 750.033 251.25 728.346 251.688C709.471 252.063 669.783 229.125 652.721 232.313C635.658 235.5 618.908 278.938 606.158 295.438C589.096 317.563 566.346 333.563 549.283 338.125C532.221 342.75 496.908 342.875 496.908 342.875C496.908 342.875 497.346 327.188 500.158 320.313C502.908 313.375 506.596 307.375 502.471 304.187C498.346 300.937 489.096 315.687 489.096 328.625C489.096 341.562 491.846 372.437 492.346 386.687C492.783 401 496.033 428.625 477.596 435.562C459.158 442.5 441.783 428.063 438.096 422.938C434.408 417.875 426.408 410.187 427.783 406.5C429.158 402.812 439.783 393.125 447.158 392.187C454.533 391.25 462.346 392.813 462.346 392.813C462.346 392.813 459.908 374.375 456.221 361.437C452.533 348.5 447.158 318.438 448.533 300C449.908 281.563 466.033 261.75 460.533 255.313C455.033 248.875 447.158 254.375 441.158 270.063C435.158 285.75 435.158 300 435.596 312C436.033 324 438.346 335.062 438.346 335.062C438.346 335.062 416.721 334.063 406.971 333.688C395.908 333.25 377.908 330.437 377.908 330.437C377.908 330.437 382.408 294.438 380.658 275.125C378.346 249.313 361.471 222.75 348.533 210.25C335.596 197.813 317.971 183.813 314.721 191.688C311.471 199.5 339.283 216.438 350.658 235.938C361.471 254.438 373.221 292.625 359.908 332.313C346.533 371.938 320.721 403.75 305.533 415.313C290.346 426.813 264.971 433.75 265.908 454.5C266.846 475.25 309.221 526.437 321.658 545.312C334.096 564.187 352.096 584.5 355.283 602C358.533 619.5 360.846 638.437 337.783 628.25C314.721 618.125 285.721 561.875 273.221 545.25C260.783 528.625 239.096 494.062 225.283 476.125C211.471 458.125 205.908 456.312 207.283 443.875C208.658 431.438 237.221 419 243.721 400.563C250.221 382.125 251.096 333.25 243.721 317.125C236.346 301 228.533 289.438 228.533 289.438C228.533 289.438 200.971 354.938 181.971 379.813C156.471 413.188 111.471 438.813 57.0334 446.188C2.65837 453.563 -11.0916 447.937 9.53338 440.625C17.3459 437.875 38.5334 429.688 59.9084 418.938C80.2209 408.813 111.846 393.438 136.283 356.688C163.346 316 174.533 239.625 222.471 182C262.096 134.375 338.033 92.5 424.846 127.625C485.221 152.063 506.408 215.688 542.846 209.188C579.471 202.813 588.221 162.688 588.221 162.688Z" fill="url(#paint1_linear_345_196)"/>
<path d="M600.658 142.125C591.096 148.938 566.221 120.188 554.846 105.25C538.533 83.75 528.971 63.6875 535.783 58.5625C545.596 51.1875 566.221 76.375 577.908 93.875C593.033 116.5 607.096 137.5 600.658 142.125Z" fill="#FFD2AF"/>
<path d="M762.908 180.5C756.721 184.625 755.721 200.75 757.971 207.875C760.408 215.563 767.471 228.438 775.783 225.063C780.408 223.188 792.408 200.188 789.908 194C787.533 187.875 766.596 178.063 762.908 180.5Z" fill="#2C302B"/>
<path d="M759.22 240.437C759.22 240.437 746.908 236.437 742.595 232.437C738.283 228.437 732.158 223.187 727.533 225.062C722.908 226.937 721.408 233.687 729.97 240.437C736.47 245.562 745.033 248.125 745.033 248.125C745.033 248.125 750.283 248.437 754.533 246.562C757.033 245.562 759.845 242 759.22 240.437Z" fill="#2C302B"/>
<path d="M664.284 161C676.139 161 685.783 170.645 685.783 182.5C685.783 187.024 682.115 190.692 677.591 190.692C673.067 190.692 669.398 187.024 669.398 182.5C669.398 179.679 667.104 177.384 664.283 177.384C661.463 177.384 659.168 179.679 659.168 182.5C659.168 187.024 655.5 190.692 650.976 190.692C646.452 190.692 642.783 187.024 642.783 182.5C642.784 170.645 652.429 161 664.284 161Z" fill="black"/>
<defs>
<linearGradient id="paint0_linear_345_196" x1="270.517" y1="176.5" x2="270.517" y2="627.049" gradientUnits="userSpaceOnUse">
<stop stop-color="#C07300"/>
<stop offset="1" stop-color="#581515"/>
</linearGradient>
<linearGradient id="paint1_linear_345_196" x1="390.004" y1="0.419434" x2="390.004" y2="631.114" gradientUnits="userSpaceOnUse">
<stop stop-color="#EE801B"/>
<stop offset="1" stop-color="#EEE61B"/>
</linearGradient>
</defs>
</svg>
